<svg width="399" height="460" viewBox="0 0 399 460" fill="none" xmlns="http://www.w3.org/2000/svg">
<g clip-path="url(#clip0_2429_19441)">
<path d="M17.4605 312.633C16.3355 310.113 19.193 308.291 21.2405 307.998L18.878 299.336C22.703 299.741 26.258 297.963 27.8555 296.906C28.4405 298.796 28.9805 300.708 29.5655 302.621C29.9705 304.038 30.578 305.478 30.7805 306.941C31.0055 308.448 30.533 309.821 29.3405 310.766C28.103 311.778 26.4155 311.868 25.6505 310.271C24.6155 308.133 27.1355 306.176 28.5755 305.771L27.023 301.518C24.638 303.071 22.5455 303.206 21.7805 303.071C21.7805 303.071 23.738 308.763 22.6355 311.598C21.5555 314.433 18.248 314.456 17.4605 312.633Z" fill="#FF6E00"/>
</g>
<g clip-path="url(#clip1_2429_19441)">
<path d="M101.713 12.0352C98.0901 9.87516 96.5151 7.91764 96.5151 5.03761C93.0726 6.56763 90.9576 6.25262 89.3376 4.58761C88.9326 6.54513 88.1451 8.86265 83.8926 8.86265C85.4901 10.4377 85.8951 15.8827 83.8926 19.7302C87.2676 17.3452 93.1851 18.0202 95.9301 20.5852C95.6151 14.6002 100.723 12.5752 101.713 12.0352Z" fill="#A1CDF5"/>
</g>
<g clip-path="url(#clip2_2429_19441)">
<path d="M331.721 438.976L331.698 438.909C331.631 438.684 331.473 438.504 331.226 438.391C331.068 438.324 330.888 438.279 330.663 438.256C330.348 438.234 329.966 438.256 329.561 438.301C329.516 438.121 329.471 437.941 329.426 437.761C329.336 437.446 329.246 437.109 329.178 436.771L328.323 433.599C328.503 433.396 328.818 433.014 328.976 432.586C329.448 431.416 329.381 429.774 329.223 428.604C329.066 427.254 328.728 425.769 328.301 424.531L328.143 424.059L324.341 424.981C324.431 424.554 324.543 424.059 324.588 423.834L324.678 423.316L319.008 421.944L318.828 422.394C318.356 423.631 317.928 425.341 317.681 426.871C317.546 427.771 317.456 428.581 317.456 429.279C317.456 430.111 317.546 430.786 317.726 431.304V431.326C317.861 431.686 318.063 432.024 318.288 432.294C317.996 433.666 317.613 435.129 317.073 437.019C316.623 436.974 316.218 436.974 315.903 437.019C315.678 437.041 315.498 437.109 315.341 437.176C315.116 437.289 314.958 437.446 314.891 437.649C314.778 437.919 314.846 438.211 315.048 438.481C315.183 438.639 315.363 438.796 315.611 438.931C316.038 439.179 316.646 439.404 317.298 439.539C317.928 439.674 318.581 439.741 319.098 439.719C319.391 439.696 319.616 439.651 319.818 439.584C320.201 439.449 320.358 439.201 320.403 439.021C320.471 438.774 320.448 438.526 320.313 438.301C320.223 438.144 320.066 437.986 319.863 437.851C319.616 437.671 319.278 437.514 318.873 437.379C318.896 437.266 318.941 437.176 318.963 437.064L319.031 436.794C319.121 436.501 319.188 436.209 319.278 435.894L320.133 432.721C320.471 432.609 320.898 432.406 321.213 432.136C321.753 431.686 322.271 430.966 322.721 430.021C322.856 429.729 323.013 429.414 323.148 429.054C323.328 429.639 323.508 430.201 323.711 430.696C324.228 431.979 324.813 432.901 325.466 433.464C325.781 433.734 326.118 433.936 326.478 434.049C326.951 435.579 327.401 437.154 327.806 438.706C327.401 438.864 327.041 439.066 326.793 439.246C326.613 439.381 326.478 439.516 326.388 439.651C326.253 439.854 326.186 440.079 326.231 440.304C326.276 440.574 326.478 440.799 326.771 440.934C326.951 441.001 327.198 441.046 327.468 441.069H327.603C328.076 441.069 328.661 440.979 329.246 440.821C329.876 440.641 330.461 440.394 330.911 440.124C331.158 439.966 331.338 439.831 331.473 439.674C331.721 439.426 331.743 439.179 331.721 438.976Z" fill="#FF44CB"/>
</g>
<g clip-path="url(#clip3_2429_19441)">
<path d="M307.307 213.539C307.307 213.539 313.697 212.077 314.349 206.407C314.349 206.407 318.287 211.402 323.867 210.547C323.867 210.547 320.649 214.507 323.214 220.987C323.214 220.987 317.387 218.4 312.662 223.89C312.662 223.912 312.369 217.365 307.307 213.539Z" fill="#FF6E00"/>
</g>
<g clip-path="url(#clip4_2429_19441)">
<path d="M362.566 156.42C362.566 156.42 366.188 160.538 361.756 164.768C361.756 164.768 368.078 163.013 368.686 169.403C368.686 169.403 371.836 164.408 376.921 168.188C376.921 168.188 373.703 163.17 379.463 161.055C379.463 161.055 373.726 158.873 376.156 154.418C376.156 154.418 370.801 157.995 368.326 152.19C368.348 152.19 368.371 158.198 362.566 156.42Z" fill="#FF44CB"/>
</g>
<g clip-path="url(#clip5_2429_19441)">
<path d="M185.816 237.755C185.006 234.268 180.956 232.22 176.749 233.188C172.564 234.155 169.819 237.778 170.629 241.265C170.944 242.615 172.654 244.235 172.654 244.235C172.654 245.158 171.394 246.463 170.876 246.98C170.786 247.07 170.831 247.228 170.966 247.228C171.821 247.295 174.229 247.295 175.781 245.833C176.816 245.968 178.594 246.103 179.719 245.833C183.881 244.888 186.626 241.265 185.816 237.755Z" fill="#FEBBF7"/>
</g>
<g clip-path="url(#clip6_2429_19441)">
<path d="M260.075 24.9425C257.847 23.0525 254.45 22.6249 251.84 23.9525C249.23 25.2575 247.497 28.205 247.677 31.1075C247.812 33.3125 248.982 35.3826 250.737 36.7326C251.075 36.9801 251.457 37.2276 251.817 37.4301C251.84 37.4526 251.862 37.4526 251.885 37.4751L250.265 39.7476C250.265 39.7476 252.627 41.2101 254.36 40.7151L254.495 38.2626C256.115 38.4651 256.902 38.2401 258.41 37.4976C259.377 37.0026 260.277 36.3276 260.975 35.4726C261.582 34.73 262.055 33.875 262.325 32.9525C263.27 30.1175 262.325 26.8325 260.075 24.9425Z" fill="#FBBB03"/>
</g>
<g clip-path="url(#clip7_2429_19441)">
<path d="M76.8428 417.24C76.8428 417.24 81.5003 416.858 82.1078 412.335C82.1078 412.335 85.2803 415.215 88.7003 412.335C88.7003 412.335 88.9253 416.07 93.4253 415.598C93.4253 415.598 91.4228 419.063 94.9103 421.11C94.9103 421.11 90.4778 421.74 91.2653 426.488C91.2653 426.488 87.3953 424.193 84.3803 427.838C84.3803 427.838 83.4578 424.08 78.8453 424.328C78.8678 424.305 81.3878 420.683 76.8428 417.24Z" fill="#FBBB03"/>
</g>
<g clip-path="url(#clip8_2429_19441)">
<path d="M348.737 11.4487C345.115 9.28873 343.54 7.33121 343.54 4.45119C340.097 5.9812 337.982 5.6662 336.362 4.00118C335.957 5.9587 335.169 8.27622 330.917 8.27622C332.514 9.85123 332.919 15.2963 330.917 19.1438C334.292 16.7588 340.209 17.4338 342.954 19.9988C342.639 14.0138 347.747 11.9888 348.737 11.4487Z" fill="#A1CDF5"/>
</g>
<g clip-path="url(#clip9_2429_19441)">
<path d="M342.876 307.001C342.876 307.001 348.231 303.131 345.284 296.943C345.284 296.943 351.516 300.993 355.769 296.245C355.769 296.245 353.721 302.793 359.864 305.943C359.864 305.943 352.776 305.336 351.741 312.693C351.741 312.693 348.861 306.438 342.876 307.001Z" fill="#FEBBF7"/>
</g>
<g clip-path="url(#clip10_2429_19441)">
<path d="M19.9754 133.359C19.7504 133.134 19.4354 133.179 19.2329 133.314C18.9179 133.516 18.4904 133.471 18.2204 133.201L16.6904 131.739L17.8604 131.041C18.1754 130.861 18.2204 130.434 17.9729 130.186L16.6229 128.791C16.3979 128.566 16.0379 128.566 15.8129 128.791L14.7104 129.984H14.6879L13.9229 129.174V129.151L15.1379 128.409C15.4529 128.206 15.4979 127.779 15.2279 127.531L13.7429 126.226C13.4954 126.024 13.1354 126.046 12.9329 126.316L12.0779 127.486H12.0554L10.7729 126.091C10.3229 125.664 10.0529 124.921 10.0079 124.111C9.96294 123.301 10.1429 122.514 10.5254 121.974C10.7054 121.726 10.6604 121.389 10.4579 121.186L9.96294 120.714C9.80544 120.579 9.62543 120.444 9.40043 120.421C9.17543 120.399 8.95043 120.489 8.79293 120.669L3.37043 126.451C3.14543 126.699 3.16794 127.081 3.41544 127.306L3.97794 127.846C4.20294 128.049 4.54043 128.094 4.78793 127.891C5.30543 127.486 6.09294 127.284 6.90294 127.306C7.62294 127.329 8.32044 127.509 8.77044 127.869C8.52294 128.026 8.27543 128.229 8.05043 128.476C6.74543 129.916 6.88043 132.166 8.27543 133.494L10.5029 135.676C11.8979 137.026 14.1479 137.071 15.5429 135.699C15.7679 135.474 15.9704 135.226 16.1279 134.956L16.3304 135.159C16.6004 135.429 16.6679 135.834 16.4879 136.171C16.3754 136.374 16.3529 136.689 16.5779 136.914L17.3654 137.656L20.7855 134.101L19.9754 133.359ZM13.6079 133.741C13.2704 134.056 12.7979 134.056 12.4829 133.786L10.0754 131.446C9.76044 131.131 9.76044 130.614 10.0754 130.299C10.3904 129.984 10.8854 129.961 11.2229 130.254L13.6304 132.594C13.9229 132.931 13.9229 133.426 13.6079 133.741Z" fill="#FF44CB"/>
</g>
<defs>
<clipPath id="clip0_2429_19441">
<rect width="24" height="24" fill="white" transform="translate(12.0205 293.395)"/>
</clipPath>
<clipPath id="clip1_2429_19441">
<rect width="24" height="24" fill="white" transform="translate(80.8027 0.586426)"/>
</clipPath>
<clipPath id="clip2_2429_19441">
<rect width="24" height="24" fill="white" transform="translate(311.282 419.506)"/>
</clipPath>
<clipPath id="clip3_2429_19441">
<rect width="24" height="24" fill="white" transform="translate(303.586 203.148)"/>
</clipPath>
<clipPath id="clip4_2429_19441">
<rect width="24" height="24" fill="white" transform="translate(358.609 148.796)"/>
</clipPath>
<clipPath id="clip5_2429_19441">
<rect width="24" height="24" fill="white" transform="translate(166.222 228.099)"/>
</clipPath>
<clipPath id="clip6_2429_19441">
<rect width="24" height="24" fill="white" transform="translate(243.177 20.0001)"/>
</clipPath>
<clipPath id="clip7_2429_19441">
<rect width="24" height="24" fill="white" transform="translate(73.8765 408.086)"/>
</clipPath>
<clipPath id="clip8_2429_19441">
<rect width="24" height="24" fill="white" transform="translate(327.827)"/>
</clipPath>
<clipPath id="clip9_2429_19441">
<rect width="24" height="24" fill="white" transform="translate(339.37 292.469)"/>
</clipPath>
<clipPath id="clip10_2429_19441">
<rect width="24" height="24" fill="white" transform="translate(0 117.037)"/>
</clipPath>
</defs>
</svg>
